<?xml version="1.0" encoding="UTF-8"?>
<svg xmlns="http://www.w3.org/2000/svg" xmlns:xlink="http://www.w3.org/1999/xlink" width="120" height="100" viewBox="0 0 120 100">
<rect x="-12" y="-10" width="144" height="120" fill="rgb(100%, 100%, 100%)" fill-opacity="1"/>
<path fill-rule="nonzero" fill="rgb(100%, 100%, 100%)" fill-opacity="1" stroke-width="0.75" stroke-linecap="butt" stroke-linejoin="miter" stroke="rgb(82.745098%, 82.745098%, 82.745098%)" stroke-opacity="1" stroke-miterlimit="10" d="M 6 27 L 6 7 L 26 7 L 26 27 Z M 6 27 "/>
<path fill-rule="nonzero" fill="rgb(0%, 29.058824%, 45.372549%)" fill-opacity="1" stroke-width="0.75" stroke-linecap="butt" stroke-linejoin="miter" stroke="rgb(0%, 44.705882%, 69.803922%)" stroke-opacity="1" stroke-miterlimit="10" d="M 28 27 L 28 7 L 48 7 L 48 27 Z M 28 27 "/>
<path fill-rule="nonzero" fill="rgb(100%, 100%, 100%)" fill-opacity="1" stroke-width="0.75" stroke-linecap="butt" stroke-linejoin="miter" stroke="rgb(82.745098%, 82.745098%, 82.745098%)" stroke-opacity="1" stroke-miterlimit="10" d="M 50 27 L 50 7 L 70 7 L 70 27 Z M 50 27 "/>
<path fill-rule="nonzero" fill="rgb(0%, 43.294579%, 67.600308%)" fill-opacity="1" stroke-width="0.75" stroke-linecap="butt" stroke-linejoin="miter" stroke="rgb(0%, 44.705882%, 69.803922%)" stroke-opacity="1" stroke-miterlimit="10" d="M 72 27 L 72 7 L 92 7 L 92 27 Z M 72 27 "/>
<path fill-rule="nonzero" fill="rgb(100%, 100%, 100%)" fill-opacity="1" stroke-width="0.75" stroke-linecap="butt" stroke-linejoin="miter" stroke="rgb(82.745098%, 82.745098%, 82.745098%)" stroke-opacity="1" stroke-miterlimit="10" d="M 94 27 L 94 7 L 114 7 L 114 27 Z M 94 27 "/>
<path fill-rule="nonzero" fill="rgb(100%, 100%, 100%)" fill-opacity="1" stroke-width="0.75" stroke-linecap="butt" stroke-linejoin="miter" stroke="rgb(82.745098%, 82.745098%, 82.745098%)" stroke-opacity="1" stroke-miterlimit="10" d="M 6 49 L 6 29 L 26 29 L 26 49 Z M 6 49 "/>
<path fill-rule="nonzero" fill="rgb(100%, 100%, 100%)" fill-opacity="1" stroke-width="0.75" stroke-linecap="butt" stroke-linejoin="miter" stroke="rgb(82.745098%, 82.745098%, 82.745098%)" stroke-opacity="1" stroke-miterlimit="10" d="M 28 49 L 28 29 L 48 29 L 48 49 Z M 28 49 "/>
<path fill-rule="nonzero" fill="rgb(100%, 100%, 100%)" fill-opacity="1" stroke-width="0.75" stroke-linecap="butt" stroke-linejoin="miter" stroke="rgb(82.745098%, 82.745098%, 82.745098%)" stroke-opacity="1" stroke-miterlimit="10" d="M 50 49 L 50 29 L 70 29 L 70 49 Z M 50 49 "/>
<path fill-rule="nonzero" fill="rgb(0%, 43.546841%, 67.99419%)" fill-opacity="1" stroke-width="0.75" stroke-linecap="butt" stroke-linejoin="miter" stroke="rgb(0%, 44.705882%, 69.803922%)" stroke-opacity="1" stroke-miterlimit="10" d="M 72 49 L 72 29 L 92 29 L 92 49 Z M 72 49 "/>
<path fill-rule="nonzero" fill="rgb(0%, 30.320133%, 47.341962%)" fill-opacity="1" stroke-width="0.75" stroke-linecap="butt" stroke-linejoin="miter" stroke="rgb(0%, 44.705882%, 69.803922%)" stroke-opacity="1" stroke-miterlimit="10" d="M 94 49 L 94 29 L 114 29 L 114 49 Z M 94 49 "/>
<path fill-rule="nonzero" fill="rgb(100%, 100%, 100%)" fill-opacity="1" stroke-width="0.75" stroke-linecap="butt" stroke-linejoin="miter" stroke="rgb(82.745098%, 82.745098%, 82.745098%)" stroke-opacity="1" stroke-miterlimit="10" d="M 6 71 L 6 51 L 26 51 L 26 71 Z M 6 71 "/>
<path fill-rule="nonzero" fill="rgb(0%, 32.079149%, 50.088496%)" fill-opacity="1" stroke-width="0.75" stroke-linecap="butt" stroke-linejoin="miter" stroke="rgb(0%, 44.705882%, 69.803922%)" stroke-opacity="1" stroke-miterlimit="10" d="M 28 71 L 28 51 L 48 51 L 48 71 Z M 28 71 "/>
<path fill-rule="nonzero" fill="rgb(0%, 34.669947%, 54.133778%)" fill-opacity="1" stroke-width="0.75" stroke-linecap="butt" stroke-linejoin="miter" stroke="rgb(0%, 44.705882%, 69.803922%)" stroke-opacity="1" stroke-miterlimit="10" d="M 50 71 L 50 51 L 70 51 L 70 71 Z M 50 71 "/>
<path fill-rule="nonzero" fill="rgb(100%, 100%, 100%)" fill-opacity="1" stroke-width="0.75" stroke-linecap="butt" stroke-linejoin="miter" stroke="rgb(82.745098%, 82.745098%, 82.745098%)" stroke-opacity="1" stroke-miterlimit="10" d="M 72 71 L 72 51 L 92 51 L 92 71 Z M 72 71 "/>
<path fill-rule="nonzero" fill="rgb(100%, 100%, 100%)" fill-opacity="1" stroke-width="0.75" stroke-linecap="butt" stroke-linejoin="miter" stroke="rgb(82.745098%, 82.745098%, 82.745098%)" stroke-opacity="1" stroke-miterlimit="10" d="M 94 71 L 94 51 L 114 51 L 114 71 Z M 94 71 "/>
<path fill-rule="nonzero" fill="rgb(0%, 41.440113%, 64.704737%)" fill-opacity="1" stroke-width="0.75" stroke-linecap="butt" stroke-linejoin="miter" stroke="rgb(0%, 44.705882%, 69.803922%)" stroke-opacity="1" stroke-miterlimit="10" d="M 6 93 L 6 73 L 26 73 L 26 93 Z M 6 93 "/>
<path fill-rule="nonzero" fill="rgb(100%, 100%, 100%)" fill-opacity="1" stroke-width="0.75" stroke-linecap="butt" stroke-linejoin="miter" stroke="rgb(82.745098%, 82.745098%, 82.745098%)" stroke-opacity="1" stroke-miterlimit="10" d="M 28 93 L 28 73 L 48 73 L 48 93 Z M 28 93 "/>
<path fill-rule="nonzero" fill="rgb(0%, 42.905959%, 66.993515%)" fill-opacity="1" stroke-width="0.75" stroke-linecap="butt" stroke-linejoin="miter" stroke="rgb(0%, 44.705882%, 69.803922%)" stroke-opacity="1" stroke-miterlimit="10" d="M 50 93 L 50 73 L 70 73 L 70 93 Z M 50 93 "/>
<path fill-rule="nonzero" fill="rgb(100%, 100%, 100%)" fill-opacity="1" stroke-width="0.75" stroke-linecap="butt" stroke-linejoin="miter" stroke="rgb(82.745098%, 82.745098%, 82.745098%)" stroke-opacity="1" stroke-miterlimit="10" d="M 72 93 L 72 73 L 92 73 L 92 93 Z M 72 93 "/>
<path fill-rule="nonzero" fill="rgb(100%, 100%, 100%)" fill-opacity="1" stroke-width="0.75" stroke-linecap="butt" stroke-linejoin="miter" stroke="rgb(82.745098%, 82.745098%, 82.745098%)" stroke-opacity="1" stroke-miterlimit="10" d="M 94 93 L 94 73 L 114 73 L 114 93 Z M 94 93 "/>
<path fill="none" stroke-width="2" stroke-linecap="butt" stroke-linejoin="miter" stroke="rgb(0%, 44.705882%, 69.803922%)" stroke-opacity="1" stroke-dasharray="7 4" stroke-miterlimit="10" d="M 2.5 96.5 L 2.5 3.5 L 117.5 3.5 L 117.5 96.5 Z M 2.5 96.5 "/>
</svg>
